# xmcd
#
# Track frame offsets: 
#        150
#        13199
#        27669
#        38658
#        54659
#        69711
#        84583
#        105007
#        119493
#        140392
#        157328
#        178214
#
# Disc length: 3123 seconds
#
# Revision: 1
# Processed by: cddbd v1.5.2PL0 Copyright (c) Steve Scherf et al.
# Submitted via: ExactAudioCopy v0.90b4
#
DISCID=a70c310c
DTITLE=Boris - Live My Life
DYEAR=2009
DGENRE=Soul
TTITLE0=Bubblin'
TTITLE1=Everything About You
TTITLE2=If You Wanna Roll With Me
TTITLE3=Stupid Again
TTITLE4=Live My Life
TTITLE5=One World
TTITLE6=Loosen Up
TTITLE7=I'm Sorry
TTITLE8=Leave It Alone
TTITLE9=The Ohhhh Song
TTITLE10=I Want You To Know
TTITLE11=Do You Love Me
EXTD=
EXTT0=
EXTT1=
EXTT2=
EXTT3=
EXTT4=
EXTT5=
EXTT6=
EXTT7=
EXTT8=
EXTT9=
EXTT10=
EXTT11=
PLAYORDER=
